<svg width="78" height="74" viewBox="0 0 78 74" fill="none" xmlns="http://www.w3.org/2000/svg">
    <path d="M70.1667 44.3335C69.1942 44.3335 68.2616 44.7198 67.5739 45.4074C66.8863 46.0951 66.5 47.0277 66.5 48.0002V62.6668C66.5 63.6393 66.1137 64.5719 65.4261 65.2596C64.7384 65.9472 63.8058 66.3335 62.8333 66.3335H11.5C10.5275 66.3335 9.59491 65.9472 8.90728 65.2596C8.21964 64.5719 7.83333 63.6393 7.83333 62.6668V27.5035L29.3933 49.1002C31.4558 51.1601 34.2517 52.3172 37.1667 52.3172C40.0817 52.3172 42.8775 51.1601 44.94 49.1002L50.9533 43.0868C51.6438 42.3964 52.0317 41.4599 52.0317 40.4835C52.0317 39.5071 51.6438 38.5706 50.9533 37.8802C50.2629 37.1897 49.3264 36.8018 48.35 36.8018C47.3736 36.8018 46.4371 37.1897 45.7467 37.8802L39.7333 43.8935C39.0479 44.5653 38.1264 44.9416 37.1667 44.9416C36.2069 44.9416 35.2854 44.5653 34.6 43.8935L13.0033 22.3335H37.1667C38.1391 22.3335 39.0718 21.9472 39.7594 21.2596C40.447 20.5719 40.8333 19.6393 40.8333 18.6668C40.8333 17.6944 40.447 16.7617 39.7594 16.0741C39.0718 15.3865 38.1391 15.0002 37.1667 15.0002H11.5C8.58262 15.0002 5.78473 16.1591 3.72183 18.222C1.65893 20.2849 0.5 23.0828 0.5 26.0002V62.6668C0.5 65.5842 1.65893 68.3821 3.72183 70.445C5.78473 72.5079 8.58262 73.6668 11.5 73.6668H62.8333C65.7507 73.6668 68.5486 72.5079 70.6115 70.445C72.6744 68.3821 73.8333 65.5842 73.8333 62.6668V48.0002C73.8333 47.0277 73.447 46.0951 72.7594 45.4074C72.0718 44.7198 71.1391 44.3335 70.1667 44.3335ZM76.4367 19.7302C76.0958 19.3865 75.6903 19.1137 75.2434 18.9276C74.7966 18.7414 74.3174 18.6456 73.8333 18.6456C73.3493 18.6456 72.87 18.7414 72.4232 18.9276C71.9764 19.1137 71.5709 19.3865 71.23 19.7302L66.5 24.4968V4.00016C66.5 3.0277 66.1137 2.09507 65.4261 1.40744C64.7384 0.719804 63.8058 0.333496 62.8333 0.333496C61.8609 0.333496 60.9282 0.719804 60.2406 1.40744C59.553 2.09507 59.1667 3.0277 59.1667 4.00016V24.4968L54.4367 19.7302C54.0948 19.3883 53.6889 19.1171 53.2422 18.9321C52.7956 18.7471 52.3168 18.6518 51.8333 18.6518C50.8569 18.6518 49.9204 19.0397 49.23 19.7302C48.8881 20.072 48.6169 20.4779 48.4319 20.9246C48.2469 21.3713 48.1517 21.85 48.1517 22.3335C48.1517 23.3099 48.5396 24.2464 49.23 24.9368L60.23 35.9368C60.5787 36.2706 60.9899 36.5323 61.44 36.7068C61.8789 36.9008 62.3535 37.001 62.8333 37.001C63.3132 37.001 63.7878 36.9008 64.2267 36.7068C64.6768 36.5323 65.088 36.2706 65.4367 35.9368L76.4367 24.9368C76.7803 24.596 77.0531 24.1904 77.2393 23.7436C77.4254 23.2968 77.5213 22.8175 77.5213 22.3335C77.5213 21.8495 77.4254 21.3702 77.2393 20.9234C77.0531 20.4766 76.7803 20.071 76.4367 19.7302Z" fill="#077AF0"/>
</svg>