<svg width="74" height="74" viewBox="0 0 74 74" fill="none" xmlns="http://www.w3.org/2000/svg">
    <path d="M37 0.333496C32.1849 0.333496 27.4169 1.28191 22.9683 3.12458C18.5197 4.96725 14.4776 7.6681 11.0727 11.0729C4.19641 17.9492 0.333331 27.2756 0.333331 37.0002C0.301276 45.467 3.2329 53.6781 8.62 60.2102L1.28666 67.5435C0.777886 68.0591 0.433233 68.7139 0.296194 69.4252C0.159156 70.1365 0.235872 70.8724 0.516664 71.5402C0.821209 72.1999 1.31491 72.7543 1.9351 73.1329C2.55529 73.5116 3.274 73.6974 4 73.6668H37C46.7246 73.6668 56.0509 69.8037 62.9273 62.9274C69.8036 56.0511 73.6667 46.7248 73.6667 37.0002C73.6667 27.2756 69.8036 17.9492 62.9273 11.0729C56.0509 4.19658 46.7246 0.333496 37 0.333496ZM37 66.3335H12.8367L16.2467 62.9235C16.9296 62.2365 17.3129 61.3072 17.3129 60.3385C17.3129 59.3698 16.9296 58.4405 16.2467 57.7535C11.4455 52.9576 8.45564 46.6455 7.78653 39.8924C7.11743 33.1393 8.81045 26.3632 12.5772 20.7184C16.3439 15.0736 21.9512 10.9095 28.4439 8.9354C34.9365 6.96132 41.9128 7.29945 48.1841 9.89218C54.4554 12.4849 59.6338 17.1718 62.8369 23.1544C66.0401 29.137 67.0699 36.0452 65.7508 42.7019C64.4317 49.3586 60.8455 55.352 55.603 59.661C50.3605 63.9701 43.7861 66.3282 37 66.3335ZM55.3333 33.3335H18.6667C17.6942 33.3335 16.7616 33.7198 16.0739 34.4074C15.3863 35.0951 15 36.0277 15 37.0002C15 37.9726 15.3863 38.9053 16.0739 39.5929C16.7616 40.2805 17.6942 40.6668 18.6667 40.6668H55.3333C56.3058 40.6668 57.2384 40.2805 57.9261 39.5929C58.6137 38.9053 59 37.9726 59 37.0002C59 36.0277 58.6137 35.0951 57.9261 34.4074C57.2384 33.7198 56.3058 33.3335 55.3333 33.3335ZM48 48.0002H26C25.0275 48.0002 24.0949 48.3865 23.4073 49.0741C22.7196 49.7617 22.3333 50.6944 22.3333 51.6668C22.3333 52.6393 22.7196 53.5719 23.4073 54.2596C24.0949 54.9472 25.0275 55.3335 26 55.3335H48C48.9725 55.3335 49.9051 54.9472 50.5927 54.2596C51.2804 53.5719 51.6667 52.6393 51.6667 51.6668C51.6667 50.6944 51.2804 49.7617 50.5927 49.0741C49.9051 48.3865 48.9725 48.0002 48 48.0002ZM26 26.0002H48C48.9725 26.0002 49.9051 25.6139 50.5927 24.9262C51.2804 24.2386 51.6667 23.306 51.6667 22.3335C51.6667 21.361 51.2804 20.4284 50.5927 19.7408C49.9051 19.0531 48.9725 18.6668 48 18.6668H26C25.0275 18.6668 24.0949 19.0531 23.4073 19.7408C22.7196 20.4284 22.3333 21.361 22.3333 22.3335C22.3333 23.306 22.7196 24.2386 23.4073 24.9262C24.0949 25.6139 25.0275 26.0002 26 26.0002Z" fill="#077AF0"/>
</svg>
