<svg width="74" height="74" viewBox="0 0 74 74" fill="none" xmlns="http://www.w3.org/2000/svg">
    <path d="M46.9733 25.2299L31.2433 40.9966L25.1933 34.9466C24.8646 34.5627 24.4601 34.251 24.0052 34.0309C23.5503 33.8108 23.0548 33.6872 22.5499 33.6677C22.0449 33.6482 21.5413 33.7332 21.0708 33.9176C20.6003 34.1019 20.1729 34.3815 19.8156 34.7389C19.4583 35.0962 19.1787 35.5235 18.9943 35.9941C18.81 36.4646 18.7249 36.9681 18.7444 37.4731C18.7639 37.9781 18.8876 38.4736 19.1077 38.9285C19.3278 39.3834 19.6395 39.7879 20.0233 40.1166L28.64 48.7699C28.9826 49.1097 29.3889 49.3786 29.8357 49.5611C30.2824 49.7435 30.7608 49.836 31.2433 49.8332C32.2052 49.8292 33.127 49.4473 33.81 48.7699L52.1433 30.4366C52.487 30.0957 52.7598 29.6902 52.9459 29.2434C53.1321 28.7965 53.2279 28.3173 53.2279 27.8333C53.2279 27.3492 53.1321 26.87 52.9459 26.4231C52.7598 25.9763 52.487 25.5708 52.1433 25.2299C51.4563 24.547 50.527 24.1637 49.5583 24.1637C48.5896 24.1637 47.6603 24.547 46.9733 25.2299ZM37 0.333252C29.748 0.333252 22.6589 2.48371 16.6291 6.5127C10.5993 10.5417 5.89963 16.2682 3.12441 22.9682C0.3492 29.6681 -0.376922 37.0406 1.03787 44.1532C2.45266 51.2659 5.94482 57.7992 11.0727 62.9272C16.2007 68.0551 22.734 71.5473 29.8467 72.962C36.9593 74.3768 44.3318 73.6507 51.0317 70.8755C57.7317 68.1003 63.4582 63.4006 67.4872 57.3708C71.5162 51.341 73.6667 44.2519 73.6667 36.9999C73.6667 32.1848 72.7182 27.4168 70.8756 22.9682C69.0329 18.5196 66.3321 14.4775 62.9272 11.0727C59.5224 7.66785 55.4803 4.96701 51.0317 3.12434C46.5831 1.28166 41.8151 0.333252 37 0.333252ZM37 66.3333C31.1984 66.3333 25.5271 64.6129 20.7033 61.3897C15.8794 58.1665 12.1197 53.5853 9.89953 48.2253C7.67936 42.8653 7.09846 36.9674 8.2303 31.2773C9.36213 25.5872 12.1559 20.3605 16.2582 16.2581C20.3605 12.1558 25.5872 9.36205 31.2773 8.23022C36.9675 7.09838 42.8654 7.67928 48.2254 9.89945C53.5853 12.1196 58.1666 15.8793 61.3898 20.7032C64.613 25.527 66.3333 31.1983 66.3333 36.9999C66.3333 44.7796 63.2429 52.2407 57.7418 57.7417C52.2407 63.2428 44.7797 66.3333 37 66.3333Z" fill="#077AF0"/>
</svg>
