<svg width="74" height="64" viewBox="0 0 74 64" fill="none" xmlns="http://www.w3.org/2000/svg">
    <path d="M41.7667 32.8068C43.7231 31.1133 45.2924 29.0187 46.3679 26.6652C47.4434 24.3118 48 21.7544 48 19.1668C48 14.3045 46.0685 9.64137 42.6303 6.20321C39.1921 2.76504 34.529 0.833496 29.6667 0.833496C24.8044 0.833496 20.1412 2.76504 16.7031 6.20321C13.2649 9.64137 11.3333 14.3045 11.3333 19.1668C11.3333 21.7544 11.8899 24.3118 12.9655 26.6652C14.041 29.0187 15.6102 31.1133 17.5667 32.8068C12.4339 35.1311 8.07905 38.8844 5.02294 43.6182C1.96683 48.3519 0.33874 53.8656 0.333344 59.5002C0.333344 60.4726 0.719652 61.4053 1.40729 62.0929C2.09492 62.7805 3.02755 63.1668 4.00001 63.1668C4.97247 63.1668 5.9051 62.7805 6.59274 62.0929C7.28037 61.4053 7.66668 60.4726 7.66668 59.5002C7.66668 53.6654 9.98453 48.0696 14.1103 43.9438C18.2361 39.818 23.8319 37.5002 29.6667 37.5002C35.5014 37.5002 41.0972 39.818 45.223 43.9438C49.3488 48.0696 51.6667 53.6654 51.6667 59.5002C51.6667 60.4726 52.053 61.4053 52.7406 62.0929C53.4282 62.7805 54.3609 63.1668 55.3333 63.1668C56.3058 63.1668 57.2384 62.7805 57.9261 62.0929C58.6137 61.4053 59 60.4726 59 59.5002C58.9946 53.8656 57.3665 48.3519 54.3104 43.6182C51.2543 38.8844 46.8995 35.1311 41.7667 32.8068ZM29.6667 30.1668C27.4911 30.1668 25.3643 29.5217 23.5554 28.313C21.7465 27.1043 20.3366 25.3863 19.504 23.3763C18.6714 21.3664 18.4536 19.1546 18.878 17.0208C19.3025 14.887 20.3501 12.927 21.8885 11.3887C23.4269 9.85028 25.3869 8.80263 27.5207 8.37819C29.6545 7.95375 31.8662 8.17159 33.8762 9.00416C35.8862 9.83672 37.6041 11.2466 38.8128 13.0556C40.0215 14.8645 40.6667 16.9912 40.6667 19.1668C40.6667 22.0842 39.5078 24.8821 37.4449 26.945C35.382 29.0079 32.5841 30.1668 29.6667 30.1668ZM72.6033 21.4768C72.2625 21.1332 71.8569 20.8604 71.4101 20.6742C70.9633 20.4881 70.4841 20.3922 70 20.3922C69.516 20.3922 69.0367 20.4881 68.5899 20.6742C68.1431 20.8604 67.7375 21.1332 67.3967 21.4768L60.0633 28.8102L57.79 26.5002C57.4491 26.1565 57.0436 25.8837 56.5968 25.6976C56.15 25.5114 55.6707 25.4156 55.1867 25.4156C54.7026 25.4156 54.2234 25.5114 53.7766 25.6976C53.3298 25.8837 52.9242 26.1565 52.5833 26.5002C51.9004 27.1872 51.5171 28.1165 51.5171 29.0852C51.5171 30.0538 51.9004 30.9832 52.5833 31.6702L57.4967 36.5835C58.1837 37.2664 59.113 37.6497 60.0817 37.6497C61.0504 37.6497 61.9797 37.2664 62.6667 36.5835L72.4567 26.7935C72.8269 26.461 73.1255 26.0567 73.3344 25.6051C73.5434 25.1535 73.6582 24.6641 73.6719 24.1667C73.6856 23.6693 73.598 23.1743 73.4143 22.7119C73.2305 22.2494 72.9546 21.8292 72.6033 21.4768Z" fill="#077AF0"/>
</svg>
