<svg width="16" height="12" viewBox="0 0 16 12" fill="none" xmlns="http://www.w3.org/2000/svg">
<path d="M13.25 0H5.75C5.55109 0 5.36032 0.0790178 5.21967 0.21967C5.07902 0.360322 5 0.551088 5 0.75V2.25H1.25C1.05109 2.25 0.860322 2.32902 0.71967 2.46967C0.579018 2.61032 0.5 2.80109 0.5 3C0.5 3.19891 0.579018 3.38968 0.71967 3.53033C0.860322 3.67098 1.05109 3.75 1.25 3.75H5V6.75C5 6.94891 5.07902 7.13968 5.21967 7.28033C5.36032 7.42098 5.55109 7.5 5.75 7.5C5.94891 7.5 6.13968 7.42098 6.28033 7.28033C6.42098 7.13968 6.5 6.94891 6.5 6.75V6H9.5V11.25C9.5 11.4489 9.57902 11.6397 9.71967 11.7803C9.86032 11.921 10.0511 12 10.25 12H11.75C12.3467 12 12.919 11.7629 13.341 11.341C13.7629 10.919 14 10.3467 14 9.75V5.865C14.4377 5.71027 14.8168 5.42395 15.0853 5.0453C15.3538 4.66665 15.4987 4.21421 15.5 3.75V2.25C15.5 1.65326 15.2629 1.08097 14.841 0.65901C14.419 0.237053 13.8467 0 13.25 0ZM12.5 9.75C12.5 9.94891 12.421 10.1397 12.2803 10.2803C12.1397 10.421 11.9489 10.5 11.75 10.5H11V6H12.5V9.75ZM14 3.75C14 3.94891 13.921 4.13968 13.7803 4.28033C13.6397 4.42098 13.4489 4.5 13.25 4.5H6.5V1.5H11V2.25C11 2.44891 11.079 2.63968 11.2197 2.78033C11.3603 2.92098 11.5511 3 11.75 3C11.9489 3 12.1397 2.92098 12.2803 2.78033C12.421 2.63968 12.5 2.44891 12.5 2.25V1.5H13.25C13.4489 1.5 13.6397 1.57902 13.7803 1.71967C13.921 1.86032 14 2.05109 14 2.25V3.75Z" fill="black"/>
</svg>
